<svg xmlns="http://www.w3.org/2000/svg" xmlns:xlink="http://www.w3.org/1999/xlink" viewBox="0 0 170 379">
  <defs>
    <clipPath id="deer-upper">
      <path transform="translate(5.36)" d="M152.15,74.67h0c-6.07,13-19.55-19.92-9.25-34A33.38,33.38,0,0,0,143,83.77h0c6,8.91-.87,19-5.51,27C131.36,119.9,123.89,134.9,111,129c-14.34-8.9-23.78-23.72-23.92-40.52-5.69,19.15,2.91,40,19.15,51.23h0c6.19,5.45-11.39,11.72-14.85,14.22-6.48,2.59-9.53,2.95-16.51-1.43-14.23-9.21-21.7-22.85-15.85-37.35-10.9,14.06-6.07,31.36,8.69,42,1.38,1,2.07,4.31-.24,4.6-28.24,4-59.35-24.23-44.34-49-6.07,6.14-9.39,14.15-8.65,22.58h0C16.57,154.1,31.28,172.52,62,172.7h0c1.34,0,2.67,0,4-.08l0,.09c37.11-5.14,82.6-20.59,95.75-92.08,14.15-12.54,25.54-29.8,23.36-50.94a54.73,54.73,0,0,1-17.91,34c-5.43,4.19-2.87-9.69-4-12.59h0a92.13,92.13,0,0,0-8.27-30l0,.18A66.35,66.35,0,0,0,147.46,9.8a40.36,40.36,0,0,0-10-8.92l0,0c-.49-.31-1-.62-1.5-.9,19.24,17.08,22.69,49.74,16.16,74.67"/>
    </clipPath>
    <linearGradient id="deer-grad-upper" x1="-68.01" y1="723.92" x2="-67.01" y2="723.92" gradientTransform="matrix(170.96,0,0,-170.96,11646.49,123850.54)" gradientUnits="userSpaceOnUse">
      <stop offset="0" stop-color="#d6c491"/>
      <stop offset="1" stop-color="#bd9456"/>
    </linearGradient>
    <clipPath id="deer-lower">
      <path transform="translate(5.36)" d="M147.16,285.76l1,.35-.53.53ZM59.8,190.56c-27.71,61.44-65.16,36.59-33,68.58,39.5-25.17,90.11-3.38,113.34,35-.06,0-1.05,1.06-1.11,1.12-17.16-22.62-40.29-36.65-68.31-35.68l-.44.69h0l-5.72,6.47,1.66-.16-.21.33-4.14,4.67,1.2-.11-.06.09-4.3,4.87,1.22-.12-4.39,5,1.22-.12-4.38,5,1.34-.13-.22.34L49.37,291l1.19-.11-.35.54-3.91,4.41,1.13-.11-.74,1.16-3.36,3.8,1-.1-1.13,1.75-2.81,3.19.81-.08-1.05,1.63-1.94,2.2.56-.06-4.64,5.1C96,379,69.51,370.46,153.33,289.28l-3.77-4.61-2.07-4.07,3.67,1.35-4.22-8.3s0-.09,0-.13l3,1.11-3.22-6.33,2.78,1L146,262.41l2.3.84-3.49-6.85,2.14.78-3.41-6.69,1.71.62-3.15-6.19c0-.16-.09-.32-.13-.48l1.63.6-3.29-6.47,1.1.4-3.29-6.47,1.09.4-3.92-7.7,0,0a161.75,161.75,0,0,0-9.75-19.54c10.48-12.13,16.34-19,20.7-35.58Z"/>
    </clipPath>
    <linearGradient id="deer-grad-lower" x1="-67.91" y1="724.33" x2="-66.91" y2="724.33" gradientTransform="matrix(138.93,0,0,-138.93,9454.9,100903.25)" gradientUnits="userSpaceOnUse">
      <stop offset="0" stop-color="#d6c491"/>
      <stop offset="1" stop-color="#bd9456"/>
    </linearGradient>
  </defs>
  <g clip-path="url(#deer-upper)">
    <rect fill="url(#deer-grad-upper)" x="13.48" width="179.13" height="172.7"/>
  </g>
  <g clip-path="url(#deer-lower)">
    <rect fill="url(#deer-grad-lower)" y="170.1" width="158.69" height="208.91"/>
  </g>
  <path fill="#c1995e" transform="translate(5.36)" d="M124.43,67.75H11.54A11.7,11.7,0,0,0,0,79.57L0,281l73.21,73.74a11.41,11.41,0,0,0,16.18,0l73.06-73.61,0-159.44-6,8.94,0,147.7-9.76,9.84-6.57,6.62-.06.06-1.35,1.36-.1.1L85.29,350.05a5.59,5.59,0,0,1-7.94,0L37.7,310.13,6,278.23V79.57a5.44,5.44,0,0,1,5.52-5.36H113.82Z"/>
</svg>
